<?xml version="1.0" encoding="UTF-8" standalone="no"?>
<!-- Created with Inkscape (http://www.inkscape.org/) -->

<svg
   xmlns:dc="http://purl.org/dc/elements/1.1/"
   xmlns:cc="http://creativecommons.org/ns#"
   xmlns:rdf="http://www.w3.org/1999/02/22-rdf-syntax-ns#"
   xmlns:svg="http://www.w3.org/2000/svg"
   xmlns="http://www.w3.org/2000/svg"
   xmlns:xlink="http://www.w3.org/1999/xlink"
   xmlns:sodipodi="http://sodipodi.sourceforge.net/DTD/sodipodi-0.dtd"
   xmlns:inkscape="http://www.inkscape.org/namespaces/inkscape"
   width="77.439453"
   height="36.15625"
   viewBox="0 0 77.439455 36.156251"
   id="svg2"
   version="1.1"
   inkscape:version="0.91 r13725"
   sodipodi:docname="close.svg">
  <defs
     id="defs4">
    <linearGradient
       inkscape:collect="always"
       id="linearGradient4253">
      <stop
         style="stop-color:#000000;stop-opacity:0.45263159"
         offset="0"
         id="stop4256" />
      <stop
         style="stop-color:#000000;stop-opacity:0.23157895"
         offset="1"
         id="stop4258" />
    </linearGradient>
    <linearGradient
       inkscape:collect="always"
       id="linearGradient4252">
      <stop
         style="stop-color:#ffffff;stop-opacity:0.47183099"
         offset="0"
         id="stop4255" />
      <stop
         style="stop-color:#ffffff;stop-opacity:0;"
         offset="1"
         id="stop4257" />
    </linearGradient>
    <linearGradient
       id="linearGradient4250"
       inkscape:collect="always">
      <stop
         id="stop4252"
         offset="0"
         style="stop-color:#ff0000;stop-opacity:0.57746476" />
      <stop
         id="stop4254"
         offset="1"
         style="stop-color:#ff0000;stop-opacity:0;" />
    </linearGradient>
    <linearGradient
       id="linearGradient4243"
       inkscape:collect="always">
      <stop
         id="stop4245"
         offset="0"
         style="stop-color:#ff0000;stop-opacity:0.62676054" />
      <stop
         id="stop4247"
         offset="1"
         style="stop-color:#ffffff;stop-opacity:0.42809364" />
    </linearGradient>
    <linearGradient
       id="linearGradient7449"
       inkscape:collect="always">
      <stop
         id="stop7451"
         offset="0"
         style="stop-color:#000000;stop-opacity:0.46842104" />
      <stop
         style="stop-color:#000000;stop-opacity:0.32156864"
         offset="0.50000006"
         id="stop4260" />
      <stop
         id="stop7453"
         offset="1"
         style="stop-color:#ffffff;stop-opacity:0.17894737" />
    </linearGradient>
    <linearGradient
       inkscape:collect="always"
       id="linearGradient7067">
      <stop
         style="stop-color:#ff0000;stop-opacity:0.32441473"
         offset="0"
         id="stop7069" />
      <stop
         style="stop-color:#ff0000;stop-opacity:0;"
         offset="1"
         id="stop7071" />
    </linearGradient>
    <linearGradient
       id="linearGradient7056"
       inkscape:collect="always">
      <stop
         id="stop7058"
         offset="0"
         style="stop-color:#ffffff;stop-opacity:1;" />
      <stop
         id="stop7060"
         offset="1"
         style="stop-color:#000000;stop-opacity:0.28125" />
    </linearGradient>
    <linearGradient
       inkscape:collect="always"
       id="linearGradient7029">
      <stop
         style="stop-color:#000000;stop-opacity:0.23529412"
         offset="0"
         id="stop7031" />
      <stop
         style="stop-color:#000000;stop-opacity:0;"
         offset="1"
         id="stop7033" />
    </linearGradient>
    <linearGradient
       inkscape:collect="always"
       xlink:href="#linearGradient4252"
       id="linearGradient7022"
       x1="137.60106"
       y1="1060.0311"
       x2="138.23999"
       y2="1080.5222"
       gradientUnits="userSpaceOnUse" />
    <linearGradient
       inkscape:collect="always"
       xlink:href="#linearGradient7029"
       id="linearGradient7035"
       x1="140.8"
       y1="73.599998"
       x2="140.8"
       y2="86.400002"
       gradientUnits="userSpaceOnUse"
       gradientTransform="translate(0,1004.3622)" />
    <linearGradient
       inkscape:collect="always"
       xlink:href="#linearGradient7056"
       id="linearGradient7054"
       x1="138.23999"
       y1="1101.0022"
       x2="138.23999"
       y2="1072.8422"
       gradientUnits="userSpaceOnUse"
       gradientTransform="matrix(1,0,0,1.0410363,0,-1053.4025)" />
    <linearGradient
       inkscape:collect="always"
       xlink:href="#linearGradient4252"
       id="linearGradient7241"
       gradientUnits="userSpaceOnUse"
       x1="138.23999"
       y1="1060.0422"
       x2="138.23999"
       y2="1080.5222" />
    <linearGradient
       inkscape:collect="always"
       xlink:href="#linearGradient7029"
       id="linearGradient7243"
       gradientUnits="userSpaceOnUse"
       gradientTransform="translate(0,1004.3622)"
       x1="140.8"
       y1="73.599998"
       x2="140.8"
       y2="86.400002" />
    <linearGradient
       inkscape:collect="always"
       xlink:href="#linearGradient7056"
       id="linearGradient7245"
       gradientUnits="userSpaceOnUse"
       gradientTransform="matrix(1,0,0,1.0410363,0,-1053.4025)"
       x1="138.23999"
       y1="1101.0022"
       x2="138.23999"
       y2="1072.8422" />
    <linearGradient
       inkscape:collect="always"
       xlink:href="#linearGradient4252"
       id="linearGradient7259"
       gradientUnits="userSpaceOnUse"
       x1="138.23999"
       y1="1060.0422"
       x2="138.23999"
       y2="1080.5222" />
    <linearGradient
       inkscape:collect="always"
       xlink:href="#linearGradient7029"
       id="linearGradient7261"
       gradientUnits="userSpaceOnUse"
       gradientTransform="translate(0,1004.3622)"
       x1="140.8"
       y1="73.599998"
       x2="140.8"
       y2="86.400002" />
    <linearGradient
       inkscape:collect="always"
       xlink:href="#linearGradient7056"
       id="linearGradient7263"
       gradientUnits="userSpaceOnUse"
       gradientTransform="matrix(1,0,0,1.0410363,0,-1053.4025)"
       x1="138.23999"
       y1="1101.0022"
       x2="138.23999"
       y2="1072.8422" />
    <linearGradient
       inkscape:collect="always"
       xlink:href="#linearGradient4252"
       id="linearGradient7277"
       gradientUnits="userSpaceOnUse"
       x1="138.23999"
       y1="1060.0422"
       x2="138.23999"
       y2="1080.5222" />
    <linearGradient
       inkscape:collect="always"
       xlink:href="#linearGradient7029"
       id="linearGradient7279"
       gradientUnits="userSpaceOnUse"
       gradientTransform="translate(0,1004.3622)"
       x1="140.8"
       y1="73.599998"
       x2="140.8"
       y2="86.400002" />
    <linearGradient
       inkscape:collect="always"
       xlink:href="#linearGradient7056"
       id="linearGradient7281"
       gradientUnits="userSpaceOnUse"
       gradientTransform="matrix(1,0,0,1.0410363,0,-1053.4025)"
       x1="138.23999"
       y1="1101.0022"
       x2="138.23999"
       y2="1072.8422" />
    <linearGradient
       inkscape:collect="always"
       xlink:href="#linearGradient4252"
       id="linearGradient7295"
       gradientUnits="userSpaceOnUse"
       x1="138.23999"
       y1="1060.0422"
       x2="138.23999"
       y2="1080.5222" />
    <linearGradient
       inkscape:collect="always"
       xlink:href="#linearGradient7029"
       id="linearGradient7297"
       gradientUnits="userSpaceOnUse"
       gradientTransform="translate(0,1004.3622)"
       x1="140.8"
       y1="73.599998"
       x2="140.8"
       y2="86.400002" />
    <linearGradient
       inkscape:collect="always"
       xlink:href="#linearGradient7056"
       id="linearGradient7299"
       gradientUnits="userSpaceOnUse"
       gradientTransform="matrix(1,0,0,1.0410363,0,-1053.4025)"
       x1="138.23999"
       y1="1101.0022"
       x2="138.23999"
       y2="1072.8422" />
    <linearGradient
       inkscape:collect="always"
       xlink:href="#linearGradient4252"
       id="linearGradient7313"
       gradientUnits="userSpaceOnUse"
       x1="138.23999"
       y1="1060.0422"
       x2="138.23999"
       y2="1080.5222" />
    <linearGradient
       inkscape:collect="always"
       xlink:href="#linearGradient7029"
       id="linearGradient7315"
       gradientUnits="userSpaceOnUse"
       gradientTransform="translate(0,1004.3622)"
       x1="140.8"
       y1="73.599998"
       x2="140.8"
       y2="86.400002" />
    <linearGradient
       inkscape:collect="always"
       xlink:href="#linearGradient7056"
       id="linearGradient7317"
       gradientUnits="userSpaceOnUse"
       gradientTransform="matrix(1,0,0,1.0410363,0,-1053.4025)"
       x1="138.23999"
       y1="1101.0022"
       x2="138.23999"
       y2="1072.8422" />
    <linearGradient
       inkscape:collect="always"
       xlink:href="#linearGradient4252"
       id="linearGradient7331"
       gradientUnits="userSpaceOnUse"
       x1="138.23999"
       y1="1060.0422"
       x2="138.23999"
       y2="1080.5222" />
    <linearGradient
       inkscape:collect="always"
       xlink:href="#linearGradient7029"
       id="linearGradient7333"
       gradientUnits="userSpaceOnUse"
       gradientTransform="translate(0,1004.3622)"
       x1="140.8"
       y1="73.599998"
       x2="140.8"
       y2="86.400002" />
    <linearGradient
       inkscape:collect="always"
       xlink:href="#linearGradient7056"
       id="linearGradient7335"
       gradientUnits="userSpaceOnUse"
       gradientTransform="matrix(1,0,0,1.0410363,0,-1053.4025)"
       x1="138.23999"
       y1="1101.0022"
       x2="138.23999"
       y2="1072.8422" />
    <linearGradient
       inkscape:collect="always"
       xlink:href="#linearGradient7067"
       id="linearGradient4251"
       x1="138.88106"
       y1="1096.9174"
       x2="138.88106"
       y2="1069.8674"
       gradientUnits="userSpaceOnUse" />
    <linearGradient
       inkscape:collect="always"
       xlink:href="#linearGradient4250"
       id="linearGradient4254"
       x1="139.60104"
       y1="1096.9174"
       x2="139.60104"
       y2="1069.8674"
       gradientUnits="userSpaceOnUse" />
    <linearGradient
       inkscape:collect="always"
       xlink:href="#linearGradient4243"
       id="linearGradient4256"
       x1="142.32104"
       y1="1099.3765"
       x2="142.32104"
       y2="1067.4083"
       gradientUnits="userSpaceOnUse" />
    <linearGradient
       inkscape:collect="always"
       xlink:href="#linearGradient7449"
       id="linearGradient4258"
       x1="141.60104"
       y1="1099.3765"
       x2="141.60104"
       y2="1074.7856"
       gradientUnits="userSpaceOnUse" />
    <linearGradient
       inkscape:collect="always"
       xlink:href="#linearGradient4253"
       id="linearGradient4260"
       x1="144.32104"
       y1="1096.9174"
       x2="144.32104"
       y2="1067.4083"
       gradientUnits="userSpaceOnUse" />
    <linearGradient
       inkscape:collect="always"
       xlink:href="#linearGradient4253"
       id="linearGradient4262"
       x1="136.80104"
       y1="1096.9174"
       x2="136.80104"
       y2="1064.9492"
       gradientUnits="userSpaceOnUse" />
    <linearGradient
       inkscape:collect="always"
       xlink:href="#linearGradient4253"
       id="linearGradient4264"
       x1="140.96103"
       y1="1096.9174"
       x2="140.96103"
       y2="1072.3265"
       gradientUnits="userSpaceOnUse" />
  </defs>
  <sodipodi:namedview
     id="base"
     pagecolor="#998261"
     bordercolor="#666666"
     borderopacity="1.0"
     inkscape:pageopacity="0"
     inkscape:pageshadow="2"
     inkscape:zoom="4.0270897"
     inkscape:cx="356.39312"
     inkscape:cy="7.2856701"
     inkscape:document-units="px"
     inkscape:current-layer="layer1"
     showgrid="true"
     units="px"
     inkscape:window-width="1366"
     inkscape:window-height="706"
     inkscape:window-x="-7"
     inkscape:window-y="0"
     inkscape:window-maximized="1"
     fit-margin-top="0"
     fit-margin-left="0"
     fit-margin-right="0"
     fit-margin-bottom="0">
    <inkscape:grid
       type="xygrid"
       id="grid3336"
       spacingx="0.001"
       spacingy="0.001"
       originx="-9.2790472"
       originy="-7.2474451" />
  </sodipodi:namedview>
  <metadata
     id="metadata7">
    <rdf:RDF>
      <cc:Work
         rdf:about="">
        <dc:format>image/svg+xml</dc:format>
        <dc:type
           rdf:resource="http://purl.org/dc/dcmitype/StillImage" />
        <dc:title />
      </cc:Work>
    </rdf:RDF>
  </metadata>
  <g
     inkscape:label="Layer 1"
     inkscape:groupmode="layer"
     id="layer1"
     transform="translate(-9.279047,-1008.9585)">
    <g
       id="active-center"
       inkscape:label="#g7379">
      <g
         transform="matrix(1,0,0,1.0410363,-92.801053,-97.248641)"
         id="g7075">
        <path
           sodipodi:nodetypes="cccsssscc"
           inkscape:connector-curvature="0"
           id="rect7014"
           d="m 102.40003,1062.6022 76.79994,0 3e-5,0 0,15.3599 c 0,10e-5 -10e-6,10e-5 -3e-5,10e-5 -23.03997,-5.221 -53.75997,-5.221 -76.79994,0 -2e-5,0 -3e-5,0 -3e-5,-10e-5 l 0,-15.3599 z"
           style="opacity:1;fill:url(#linearGradient7022);fill-opacity:1;stroke:none" />
        <path
           sodipodi:nodetypes="csssscc"
           style="opacity:1;fill:url(#linearGradient7035);fill-opacity:1;stroke:none"
           d="m 102.40039,1077.9618 0,14.1602 c 0,2.8365 2.28264,5.1211 5.11914,5.1211 l 66.56055,0 c 2.83649,0 5.11914,-2.2846 5.11914,-5.1211 l 0,-14.1602 c -25.59922,-5.2206 -51.19922,-5.2206 -76.79883,0 z"
           id="path7024"
           inkscape:connector-curvature="0" />
        <path
           sodipodi:nodetypes="csssscc"
           inkscape:connector-curvature="0"
           id="path7065"
           d="m 102.40039,1077.9618 0,14.1602 c 0,2.8365 2.28264,5.1211 5.11914,5.1211 l 66.56055,0 c 2.83649,0 5.11914,-2.2846 5.11914,-5.1211 l 0,-14.1602 c -23.03922,-5.2206 -51.19922,-5.2206 -76.79883,0 z"
           style="opacity:1;fill:url(#linearGradient4251);fill-opacity:1;stroke:none" />
        <path
           inkscape:connector-curvature="0"
           id="path7043"
           d="m 102.0957,52.804688 c -0.006,0.104855 -0.0156,0.207946 -0.0156,0.314453 l 0,30.720703 c 0,2.836489 2.28265,5.121094 5.11914,5.121094 l 67.20117,0 c 2.83649,0 5.11914,-2.284605 5.11914,-5.121094 l 0,-30.720703 c 0,-0.106507 -0.009,-0.209598 -0.0156,-0.314453 l -0.30469,0 0,30.423828 c 0,2.952899 -2.28265,5.332031 -5.11914,5.332031 l -66.56055,0 c -2.8365,0 -5.11914,-2.379132 -5.11914,-5.332031 l 0,-30.423828 -0.30469,0 z"
           style="opacity:1;fill:url(#linearGradient7054);fill-opacity:1;stroke:none"
           transform="matrix(1,0,0,0.9605813,0,1011.8787)" />
      </g>
      <g
         transform="translate(24.338739,-1.2630699)"
         id="g4348">
        <path
           style="opacity:1;fill:#ffffff;fill-opacity:1;stroke:none"
           d="m 16.871393,1024.3795 4.07415,4.0741 -4.072769,4.0728 2.71518,2.7152 4.072768,-4.0728 4.07277,4.0728 2.71518,-2.7152 -4.07277,-4.0728 4.07277,-4.0728 -2.71518,-2.7151 -4.07277,4.0727 -4.07415,-4.0741 -2.715179,2.7152 z"
           id="rect4341"
           inkscape:connector-curvature="0" />
        <path
           inkscape:connector-curvature="0"
           id="path4346"
           d="m 16.871393,1024.073 4.07415,4.0741 -4.072769,4.0728 2.71518,2.7152 4.072768,-4.0728 4.07277,4.0728 2.71518,-2.7152 -4.07277,-4.0728 4.07277,-4.0728 -2.71518,-2.7151 -4.07277,4.0727 -4.07415,-4.0741 -2.715179,2.7152 z"
           style="opacity:1;fill:#ff3200;fill-opacity:1;stroke:none" />
      </g>
    </g>
    <g
       id="hover-center"
       inkscape:label="#g7389">
      <g
         id="g7231"
         transform="matrix(1,0,0,1.0410363,1.198947,-97.248641)">
        <path
           style="opacity:1;fill:url(#linearGradient7241);fill-opacity:1.0;stroke:none"
           d="m 102.40003,1062.6022 76.79994,0 3e-5,0 0,15.3599 c 0,10e-5 -10e-6,10e-5 -3e-5,10e-5 -23.03997,-5.221 -53.75997,-5.221 -76.79994,0 -2e-5,0 -3e-5,0 -3e-5,-10e-5 l 0,-15.3599 z"
           id="path7233"
           inkscape:connector-curvature="0"
           sodipodi:nodetypes="cccsssscc" />
        <path
           inkscape:connector-curvature="0"
           id="path7235"
           d="m 102.40039,1077.9618 0,14.1602 c 0,2.8365 2.28264,5.1211 5.11914,5.1211 l 66.56055,0 c 2.83649,0 5.11914,-2.2846 5.11914,-5.1211 l 0,-14.1602 c -25.59922,-5.2206 -51.19922,-5.2206 -76.79883,0 z"
           style="opacity:1;fill:url(#linearGradient7243);fill-opacity:1;stroke:none"
           sodipodi:nodetypes="csssscc" />
        <path
           style="opacity:1;fill:url(#linearGradient4254);fill-opacity:1;stroke:none"
           d="m 102.40039,1077.9618 0,14.1602 c 0,2.8365 2.28264,5.1211 5.11914,5.1211 l 66.56055,0 c 2.83649,0 5.11914,-2.2846 5.11914,-5.1211 l 0,-14.1602 c -23.03922,-5.2206 -51.19922,-5.2206 -76.79883,0 z"
           id="path7239"
           inkscape:connector-curvature="0"
           sodipodi:nodetypes="csssscc" />
        <path
           style="opacity:1;fill:url(#linearGradient7245);fill-opacity:1;stroke:none"
           d="m 102.0957,52.804688 c -0.006,0.104855 -0.0156,0.207946 -0.0156,0.314453 l 0,30.720703 c 0,2.836489 2.28265,5.121094 5.11914,5.121094 l 67.20117,0 c 2.83649,0 5.11914,-2.284605 5.11914,-5.121094 l 0,-30.720703 c 0,-0.106507 -0.009,-0.209598 -0.0156,-0.314453 l -0.30469,0 0,30.423828 c 0,2.952899 -2.28265,5.332031 -5.11914,5.332031 l -66.56055,0 c -2.8365,0 -5.11914,-2.379132 -5.11914,-5.332031 l 0,-30.423828 -0.30469,0 z"
           transform="matrix(1,0,0,0.9605813,0,1011.8787)"
           id="path7237"
           inkscape:connector-curvature="0" />
      </g>
      <g
         id="g7343"
         transform="translate(118.33874,-1.2630699)">
        <path
           inkscape:connector-curvature="0"
           id="path7345"
           d="m 16.871393,1024.3795 4.07415,4.0741 -4.072769,4.0728 2.71518,2.7152 4.072768,-4.0728 4.07277,4.0728 2.71518,-2.7152 -4.07277,-4.0728 4.07277,-4.0728 -2.71518,-2.7151 -4.07277,4.0727 -4.07415,-4.0741 -2.715179,2.7152 z"
           style="opacity:1;fill:#ffffff;fill-opacity:1;stroke:none" />
        <path
           style="opacity:1;fill:#ff0000;fill-opacity:1;stroke:none"
           d="m 16.871393,1024.073 4.07415,4.0741 -4.072769,4.0728 2.71518,2.7152 4.072768,-4.0728 4.07277,4.0728 2.71518,-2.7152 -4.07277,-4.0728 4.07277,-4.0728 -2.71518,-2.7151 -4.07277,4.0727 -4.07415,-4.0741 -2.715179,2.7152 z"
           id="path7347"
           inkscape:connector-curvature="0" />
      </g>
    </g>
    <g
       id="pressed-center"
       inkscape:label="#g7399">
      <g
         transform="matrix(1,0,0,1.0410363,93.198947,-97.248641)"
         id="g7249">
        <path
           sodipodi:nodetypes="cccsssscc"
           inkscape:connector-curvature="0"
           id="path7251"
           d="m 102.40003,1062.6022 76.79994,0 3e-5,0 0,15.3599 c 0,10e-5 -10e-6,10e-5 -3e-5,10e-5 -23.03997,-5.221 -53.75997,-5.221 -76.79994,0 -2e-5,0 -3e-5,0 -3e-5,-10e-5 l 0,-15.3599 z"
           style="opacity:1;fill:url(#linearGradient7259);fill-opacity:1.0;stroke:none" />
        <path
           sodipodi:nodetypes="csssscc"
           style="opacity:1;fill:url(#linearGradient7261);fill-opacity:1;stroke:none"
           d="m 102.40039,1077.9618 0,14.1602 c 0,2.8365 2.28264,5.1211 5.11914,5.1211 l 66.56055,0 c 2.83649,0 5.11914,-2.2846 5.11914,-5.1211 l 0,-14.1602 c -25.59922,-5.2206 -51.19922,-5.2206 -76.79883,0 z"
           id="path7253"
           inkscape:connector-curvature="0" />
        <path
           sodipodi:nodetypes="csssscc"
           inkscape:connector-curvature="0"
           id="path7257"
           d="m 102.40039,1077.9618 0,14.1602 c 0,2.8365 2.28264,5.1211 5.11914,5.1211 l 66.56055,0 c 2.83649,0 5.11914,-2.2846 5.11914,-5.1211 l 0,-14.1602 c -23.03922,-5.2206 -51.19922,-5.2206 -76.79883,0 z"
           style="opacity:1;fill:url(#linearGradient4256);fill-opacity:1;stroke:none" />
        <path
           inkscape:connector-curvature="0"
           id="path7255"
           transform="matrix(1,0,0,0.9605813,0,1011.8787)"
           d="m 102.0957,52.804688 c -0.006,0.104855 -0.0156,0.207946 -0.0156,0.314453 l 0,30.720703 c 0,2.836489 2.28265,5.121094 5.11914,5.121094 l 67.20117,0 c 2.83649,0 5.11914,-2.284605 5.11914,-5.121094 l 0,-30.720703 c 0,-0.106507 -0.009,-0.209598 -0.0156,-0.314453 l -0.30469,0 0,30.423828 c 0,2.952899 -2.28265,5.332031 -5.11914,5.332031 l -66.56055,0 c -2.8365,0 -5.11914,-2.379132 -5.11914,-5.332031 l 0,-30.423828 -0.30469,0 z"
           style="opacity:1;fill:url(#linearGradient7263);fill-opacity:1;stroke:none" />
      </g>
      <g
         transform="translate(210.33874,-1.2630699)"
         id="g7349">
        <path
           style="opacity:1;fill:#ffffff;fill-opacity:1;stroke:none"
           d="m 16.871393,1024.3795 4.07415,4.0741 -4.072769,4.0728 2.71518,2.7152 4.072768,-4.0728 4.07277,4.0728 2.71518,-2.7152 -4.07277,-4.0728 4.07277,-4.0728 -2.71518,-2.7151 -4.07277,4.0727 -4.07415,-4.0741 -2.715179,2.7152 z"
           id="path7351"
           inkscape:connector-curvature="0" />
        <path
           inkscape:connector-curvature="0"
           id="path7353"
           d="m 16.871393,1024.073 4.07415,4.0741 -4.072769,4.0728 2.71518,2.7152 4.072768,-4.0728 4.07277,4.0728 2.71518,-2.7152 -4.07277,-4.0728 4.07277,-4.0728 -2.71518,-2.7151 -4.07277,4.0727 -4.07415,-4.0741 -2.715179,2.7152 z"
           style="opacity:1;fill:#ff0000;fill-opacity:1;stroke:none" />
      </g>
    </g>
    <g
       id="inactive-hover-center"
       inkscape:label="#g7409">
      <g
         id="g7267"
         transform="matrix(1,0,0,1.0410363,191.19895,-97.248641)">
        <path
           style="opacity:1;fill:url(#linearGradient7277);fill-opacity:1.0;stroke:none"
           d="m 102.40003,1062.6022 76.79994,0 3e-5,0 0,15.3599 c 0,10e-5 -10e-6,10e-5 -3e-5,10e-5 -23.03997,-5.221 -53.75997,-5.221 -76.79994,0 -2e-5,0 -3e-5,0 -3e-5,-10e-5 l 0,-15.3599 z"
           id="path7269"
           inkscape:connector-curvature="0"
           sodipodi:nodetypes="cccsssscc" />
        <path
           inkscape:connector-curvature="0"
           id="path7271"
           d="m 102.40039,1077.9618 0,14.1602 c 0,2.8365 2.28264,5.1211 5.11914,5.1211 l 66.56055,0 c 2.83649,0 5.11914,-2.2846 5.11914,-5.1211 l 0,-14.1602 c -25.59922,-5.2206 -51.19922,-5.2206 -76.79883,0 z"
           style="opacity:1;fill:url(#linearGradient7279);fill-opacity:1;stroke:none"
           sodipodi:nodetypes="csssscc" />
        <path
           style="opacity:1;fill:url(#linearGradient4258);fill-opacity:1;stroke:none"
           d="m 102.40039,1077.9618 0,14.1602 c 0,2.8365 2.28264,5.1211 5.11914,5.1211 l 66.56055,0 c 2.83649,0 5.11914,-2.2846 5.11914,-5.1211 l 0,-14.1602 c -23.03922,-5.2206 -51.19922,-5.2206 -76.79883,0 z"
           id="path7275"
           inkscape:connector-curvature="0"
           sodipodi:nodetypes="csssscc" />
        <path
           style="opacity:1;fill:url(#linearGradient7281);fill-opacity:1;stroke:none"
           d="m 102.0957,52.804688 c -0.006,0.104855 -0.0156,0.207946 -0.0156,0.314453 l 0,30.720703 c 0,2.836489 2.28265,5.121094 5.11914,5.121094 l 67.20117,0 c 2.83649,0 5.11914,-2.284605 5.11914,-5.121094 l 0,-30.720703 c 0,-0.106507 -0.009,-0.209598 -0.0156,-0.314453 l -0.30469,0 0,30.423828 c 0,2.952899 -2.28265,5.332031 -5.11914,5.332031 l -66.56055,0 c -2.8365,0 -5.11914,-2.379132 -5.11914,-5.332031 l 0,-30.423828 -0.30469,0 z"
           transform="matrix(1,0,0,0.9605813,0,1011.8787)"
           id="path7273"
           inkscape:connector-curvature="0" />
      </g>
      <g
         id="g7355"
         transform="translate(308.33874,-1.2630699)">
        <path
           inkscape:connector-curvature="0"
           id="path7357"
           d="m 16.871393,1024.3795 4.07415,4.0741 -4.072769,4.0728 2.71518,2.7152 4.072768,-4.0728 4.07277,4.0728 2.71518,-2.7152 -4.07277,-4.0728 4.07277,-4.0728 -2.71518,-2.7151 -4.07277,4.0727 -4.07415,-4.0741 -2.715179,2.7152 z"
           style="opacity:1;fill:#ffffff;fill-opacity:1;stroke:none" />
        <path
           style="opacity:1;fill:#ff0000;fill-opacity:1;stroke:none"
           d="m 16.871393,1024.073 4.07415,4.0741 -4.072769,4.0728 2.71518,2.7152 4.072768,-4.0728 4.07277,4.0728 2.71518,-2.7152 -4.07277,-4.0728 4.07277,-4.0728 -2.71518,-2.7151 -4.07277,4.0727 -4.07415,-4.0741 -2.715179,2.7152 z"
           id="path7359"
           inkscape:connector-curvature="0" />
      </g>
    </g>
    <g
       id="inactive-center"
       inkscape:label="#g7419">
      <g
         transform="matrix(1,0,0,1.0410363,283.19895,-97.248641)"
         id="g7285">
        <path
           sodipodi:nodetypes="cccsssscc"
           inkscape:connector-curvature="0"
           id="path7287"
           d="m 102.40003,1062.6022 76.79994,0 3e-5,0 0,15.3599 c 0,10e-5 -10e-6,10e-5 -3e-5,10e-5 -23.03997,-5.221 -53.75997,-5.221 -76.79994,0 -2e-5,0 -3e-5,0 -3e-5,-10e-5 l 0,-15.3599 z"
           style="opacity:1;fill:url(#linearGradient7295);fill-opacity:1.0;stroke:none" />
        <path
           sodipodi:nodetypes="csssscc"
           style="opacity:1;fill:url(#linearGradient7297);fill-opacity:1;stroke:none"
           d="m 102.40039,1077.9618 0,14.1602 c 0,2.8365 2.28264,5.1211 5.11914,5.1211 l 66.56055,0 c 2.83649,0 5.11914,-2.2846 5.11914,-5.1211 l 0,-14.1602 c -25.59922,-5.2206 -51.19922,-5.2206 -76.79883,0 z"
           id="path7289"
           inkscape:connector-curvature="0" />
        <path
           sodipodi:nodetypes="csssscc"
           inkscape:connector-curvature="0"
           id="path7293"
           d="m 102.40039,1077.9618 0,14.1602 c 0,2.8365 2.28264,5.1211 5.11914,5.1211 l 66.56055,0 c 2.83649,0 5.11914,-2.2846 5.11914,-5.1211 l 0,-14.1602 c -23.03922,-5.2206 -51.19922,-5.2206 -76.79883,0 z"
           style="opacity:1;fill:url(#linearGradient4260);fill-opacity:1;stroke:none" />
        <path
           inkscape:connector-curvature="0"
           id="path7291"
           transform="matrix(1,0,0,0.9605813,0,1011.8787)"
           d="m 102.0957,52.804688 c -0.006,0.104855 -0.0156,0.207946 -0.0156,0.314453 l 0,30.720703 c 0,2.836489 2.28265,5.121094 5.11914,5.121094 l 67.20117,0 c 2.83649,0 5.11914,-2.284605 5.11914,-5.121094 l 0,-30.720703 c 0,-0.106507 -0.009,-0.209598 -0.0156,-0.314453 l -0.30469,0 0,30.423828 c 0,2.952899 -2.28265,5.332031 -5.11914,5.332031 l -66.56055,0 c -2.8365,0 -5.11914,-2.379132 -5.11914,-5.332031 l 0,-30.423828 -0.30469,0 z"
           style="opacity:1;fill:url(#linearGradient7299);fill-opacity:1;stroke:none" />
      </g>
      <g
         transform="translate(400.33874,-1.2630699)"
         id="g7361">
        <path
           style="opacity:1;fill:#ffffff;fill-opacity:1;stroke:none"
           d="m 16.871393,1024.3795 4.07415,4.0741 -4.072769,4.0728 2.71518,2.7152 4.072768,-4.0728 4.07277,4.0728 2.71518,-2.7152 -4.07277,-4.0728 4.07277,-4.0728 -2.71518,-2.7151 -4.07277,4.0727 -4.07415,-4.0741 -2.715179,2.7152 z"
           id="path7363"
           inkscape:connector-curvature="0" />
        <path
           inkscape:connector-curvature="0"
           id="path7365"
           d="m 16.871393,1024.073 4.07415,4.0741 -4.072769,4.0728 2.71518,2.7152 4.072768,-4.0728 4.07277,4.0728 2.71518,-2.7152 -4.07277,-4.0728 4.07277,-4.0728 -2.71518,-2.7151 -4.07277,4.0727 -4.07415,-4.0741 -2.715179,2.7152 z"
           style="opacity:1;fill:#ff0000;fill-opacity:1;stroke:none" />
      </g>
    </g>
    <g
       id="deactivated-center"
       inkscape:label="#g7429">
      <g
         id="g7303"
         transform="matrix(1,0,0,1.0410363,375.19895,-97.248641)">
        <path
           style="opacity:1;fill:url(#linearGradient7313);fill-opacity:1.0;stroke:none"
           d="m 102.40003,1062.6022 76.79994,0 3e-5,0 0,15.3599 c 0,10e-5 -10e-6,10e-5 -3e-5,10e-5 -23.03997,-5.221 -53.75997,-5.221 -76.79994,0 -2e-5,0 -3e-5,0 -3e-5,-10e-5 l 0,-15.3599 z"
           id="path7305"
           inkscape:connector-curvature="0"
           sodipodi:nodetypes="cccsssscc" />
        <path
           inkscape:connector-curvature="0"
           id="path7307"
           d="m 102.40039,1077.9618 0,14.1602 c 0,2.8365 2.28264,5.1211 5.11914,5.1211 l 66.56055,0 c 2.83649,0 5.11914,-2.2846 5.11914,-5.1211 l 0,-14.1602 c -25.59922,-5.2206 -51.19922,-5.2206 -76.79883,0 z"
           style="opacity:1;fill:url(#linearGradient7315);fill-opacity:1;stroke:none"
           sodipodi:nodetypes="csssscc" />
        <path
           style="opacity:1;fill:url(#linearGradient4262);fill-opacity:1;stroke:none"
           d="m 102.40039,1077.9618 0,14.1602 c 0,2.8365 2.28264,5.1211 5.11914,5.1211 l 66.56055,0 c 2.83649,0 5.11914,-2.2846 5.11914,-5.1211 l 0,-14.1602 c -23.03922,-5.2206 -51.19922,-5.2206 -76.79883,0 z"
           id="path7311"
           inkscape:connector-curvature="0"
           sodipodi:nodetypes="csssscc" />
        <path
           style="opacity:1;fill:url(#linearGradient7317);fill-opacity:1;stroke:none"
           d="m 102.0957,52.804688 c -0.006,0.104855 -0.0156,0.207946 -0.0156,0.314453 l 0,30.720703 c 0,2.836489 2.28265,5.121094 5.11914,5.121094 l 67.20117,0 c 2.83649,0 5.11914,-2.284605 5.11914,-5.121094 l 0,-30.720703 c 0,-0.106507 -0.009,-0.209598 -0.0156,-0.314453 l -0.30469,0 0,30.423828 c 0,2.952899 -2.28265,5.332031 -5.11914,5.332031 l -66.56055,0 c -2.8365,0 -5.11914,-2.379132 -5.11914,-5.332031 l 0,-30.423828 -0.30469,0 z"
           transform="matrix(1,0,0,0.9605813,0,1011.8787)"
           id="path7309"
           inkscape:connector-curvature="0" />
      </g>
      <g
         id="g7367"
         transform="translate(492.33874,-1.2630699)">
        <path
           inkscape:connector-curvature="0"
           id="path7369"
           d="m 16.871393,1024.3795 4.07415,4.0741 -4.072769,4.0728 2.71518,2.7152 4.072768,-4.0728 4.07277,4.0728 2.71518,-2.7152 -4.07277,-4.0728 4.07277,-4.0728 -2.71518,-2.7151 -4.07277,4.0727 -4.07415,-4.0741 -2.715179,2.7152 z"
           style="opacity:1;fill:#ffffff;fill-opacity:1;stroke:none" />
        <path
           style="opacity:1;fill:#ff0000;fill-opacity:1;stroke:none"
           d="m 16.871393,1024.073 4.07415,4.0741 -4.072769,4.0728 2.71518,2.7152 4.072768,-4.0728 4.07277,4.0728 2.71518,-2.7152 -4.07277,-4.0728 4.07277,-4.0728 -2.71518,-2.7151 -4.07277,4.0727 -4.07415,-4.0741 -2.715179,2.7152 z"
           id="path7371"
           inkscape:connector-curvature="0" />
      </g>
    </g>
    <g
       id="deactivated-inactive-center"
       inkscape:label="#g7439">
      <g
         transform="matrix(1,0,0,1.0410363,463.19895,-97.248641)"
         id="g7321">
        <path
           sodipodi:nodetypes="cccsssscc"
           inkscape:connector-curvature="0"
           id="path7323"
           d="m 102.40003,1062.6022 76.79994,0 3e-5,0 0,15.3599 c 0,10e-5 -10e-6,10e-5 -3e-5,10e-5 -23.03997,-5.221 -53.75997,-5.221 -76.79994,0 -2e-5,0 -3e-5,0 -3e-5,-10e-5 l 0,-15.3599 z"
           style="opacity:1;fill:url(#linearGradient7331);fill-opacity:1.0;stroke:none" />
        <path
           sodipodi:nodetypes="csssscc"
           style="opacity:1;fill:url(#linearGradient7333);fill-opacity:1;stroke:none"
           d="m 102.40039,1077.9618 0,14.1602 c 0,2.8365 2.28264,5.1211 5.11914,5.1211 l 66.56055,0 c 2.83649,0 5.11914,-2.2846 5.11914,-5.1211 l 0,-14.1602 c -25.59922,-5.2206 -51.19922,-5.2206 -76.79883,0 z"
           id="path7325"
           inkscape:connector-curvature="0" />
        <path
           sodipodi:nodetypes="csssscc"
           inkscape:connector-curvature="0"
           id="path7329"
           d="m 102.40039,1077.9618 0,14.1602 c 0,2.8365 2.28264,5.1211 5.11914,5.1211 l 66.56055,0 c 2.83649,0 5.11914,-2.2846 5.11914,-5.1211 l 0,-14.1602 c -23.03922,-5.2206 -51.19922,-5.2206 -76.79883,0 z"
           style="opacity:1;fill:url(#linearGradient4264);fill-opacity:1;stroke:none" />
        <path
           inkscape:connector-curvature="0"
           id="path7327"
           transform="matrix(1,0,0,0.9605813,0,1011.8787)"
           d="m 102.0957,52.804688 c -0.006,0.104855 -0.0156,0.207946 -0.0156,0.314453 l 0,30.720703 c 0,2.836489 2.28265,5.121094 5.11914,5.121094 l 67.20117,0 c 2.83649,0 5.11914,-2.284605 5.11914,-5.121094 l 0,-30.720703 c 0,-0.106507 -0.009,-0.209598 -0.0156,-0.314453 l -0.30469,0 0,30.423828 c 0,2.952899 -2.28265,5.332031 -5.11914,5.332031 l -66.56055,0 c -2.8365,0 -5.11914,-2.379132 -5.11914,-5.332031 l 0,-30.423828 -0.30469,0 z"
           style="opacity:1;fill:url(#linearGradient7335);fill-opacity:1;stroke:none" />
      </g>
      <g
         transform="translate(580.33874,-1.2630699)"
         id="g7373">
        <path
           style="opacity:1;fill:#ffffff;fill-opacity:1;stroke:none"
           d="m 16.871393,1024.3795 4.07415,4.0741 -4.072769,4.0728 2.71518,2.7152 4.072768,-4.0728 4.07277,4.0728 2.71518,-2.7152 -4.07277,-4.0728 4.07277,-4.0728 -2.71518,-2.7151 -4.07277,4.0727 -4.07415,-4.0741 -2.715179,2.7152 z"
           id="path7375"
           inkscape:connector-curvature="0" />
        <path
           inkscape:connector-curvature="0"
           id="path7377"
           d="m 16.871393,1024.073 4.07415,4.0741 -4.072769,4.0728 2.71518,2.7152 4.072768,-4.0728 4.07277,4.0728 2.71518,-2.7152 -4.07277,-4.0728 4.07277,-4.0728 -2.71518,-2.7151 -4.07277,4.0727 -4.07415,-4.0741 -2.715179,2.7152 z"
           style="opacity:1;fill:#ff0000;fill-opacity:1;stroke:none" />
      </g>
    </g>
  </g>
</svg>
